<svg width="45" height="45" viewBox="0 0 45 45" fill="none" xmlns="http://www.w3.org/2000/svg">
<g clip-path="url(#clip0_184_71)">
<path d="M16 9H20.5C21.8807 9 23 10.1193 23 11.5V24.5C23 25.8807 21.8807 27 20.5 27H16V9Z" fill="#8739F9"/>
<path d="M24 14H27.5C28.8807 14 30 15.1193 30 16.5V24.5C30 25.8807 28.8807 27 27.5 27H24V14Z" fill="#8739F9"/>
<path d="M31 18H34.5C35.8807 18 37 19.1193 37 20.5V25.5C37 26.8807 35.8807 28 34.5 28H31V18Z" fill="#8739F9"/>
<path d="M16 28H28.5C29.8807 28 31 29.1193 31 30.5V32.5C31 33.8807 29.8807 35 28.5 35H16V28Z" fill="#8739F9"/>
<path d="M7 16H12.5C13.8807 16 15 17.1193 15 18.5V28.5C15 29.8807 13.8807 31 12.5 31H7V16Z" fill="#8739F9"/>
</g>
<defs>
<clipPath id="clip0_184_71">
<rect width="30" height="26" fill="white" transform="translate(7 9)"/>
</clipPath>
</defs>
</svg>
